<svg xmlns="http://www.w3.org/2000/svg" viewBox="0 0 210 210" role="img" aria-label="Ci-en">
  <path fill="#8e8d8d" d="M105.167 162.92a1.759 1.759 0 0 1-1.232-.493L50.312 109.614a34.4 34.4 0 0 1-.471-48.645q.233-.238.471-.471A35.207 35.207 0 0 1 75.205 50.252h0A35.206 35.206 0 0 1 99.851 60.427l5.176 5.141 5.387-5.141A35.2 35.2 0 0 1 135.06 50.252h0a35.21 35.21 0 0 1 24.646 10.1h0A34.4 34.4 0 0 1 160.141 109c-.143.146-.289.291-.435.435l-53.588 52.813a1.821 1.821 0 0 1-.951.672ZM75.205 53.773a31.687 31.687 0 0 0-22.393 9.048 30.95 30.95 0 0 0-.386 43.767c.127.129.256.258.386.385l52.426 51.757 52.285-51.686a30.984 30.984 0 0 0 .3-43.817q-.149-.151-.3-.3h0a31.686 31.686 0 0 0-22.463-9.154h0a31.687 31.687 0 0 0-22.323 9.119L106.4 69.229a1.761 1.761 0 0 1-2.465 0l-6.443-6.337a31.687 31.687 0 0 0-22.287-9.119Z"/>
</svg>
